<svg viewBox="0 0 29 25" fill="none" xmlns="http://www.w3.org/2000/svg">
<g clip-path="url(#clip0)">
<path d="M22.753 8.29247L23.1532 8.08742C22.3645 7.00241 21.3224 6.07774 20.0997 5.3779L19.8686 5.73298C19.7785 5.87054 19.6162 5.94791 19.4485 5.94791C19.3667 5.94791 19.2833 5.92943 19.2068 5.89031C18.9752 5.77166 18.8958 5.50858 19.0295 5.3031L19.2615 4.94673C18.0005 4.36768 16.5873 4.0212 15.0894 3.95801V4.36596C15.0894 4.60369 14.8724 4.79584 14.6049 4.79584C14.3375 4.79584 14.1205 4.60369 14.1205 4.36596V3.95801L13.0348 4.11749C12.1463 4.24818 11.2772 4.46612 10.443 4.76747L9.94786 4.9463L10.1799 5.30267C10.3136 5.50858 10.2342 5.77123 10.0026 5.88988C9.92606 5.929 9.84273 5.94748 9.76086 5.94748C9.59323 5.94748 9.43046 5.87011 9.34083 5.73255L9.10975 5.37747C7.88649 6.07731 6.84491 7.00198 6.05621 8.08699L6.45637 8.29204C6.68794 8.41069 6.7674 8.67377 6.63369 8.87925C6.54358 9.01682 6.38128 9.09419 6.21366 9.09419C6.13179 9.09419 6.04846 9.07571 5.97192 9.03659L5.5703 8.83068C4.91774 9.94965 4.52727 11.204 4.45605 12.5328H4.9158C5.18322 12.5328 5.40026 12.7249 5.40026 12.9627C5.40026 13.2004 5.18322 13.3925 4.9158 13.3925H4.45557C4.52678 14.7217 4.91725 15.9761 5.56982 17.0947L5.97143 16.8887C6.20349 16.7692 6.49901 16.841 6.6332 17.0461C6.76691 17.252 6.68746 17.5146 6.45589 17.6333L6.05573 17.8383C6.84442 18.9234 7.88649 19.848 9.10926 20.5479L9.34035 20.1928C9.47406 19.9873 9.76909 19.9164 10.0021 20.0355C10.2337 20.1541 10.3131 20.4172 10.1794 20.6227L9.94737 20.979C11.2084 21.5581 12.6216 21.9046 14.1195 21.9678V21.5598C14.1195 21.3221 14.3366 21.1299 14.604 21.1299C14.8714 21.1299 15.0884 21.3221 15.0884 21.5598V21.9678C16.5864 21.905 17.9995 21.5581 19.2606 20.979L19.0285 20.6227C18.8948 20.4168 18.9743 20.1541 19.2058 20.0355C19.4379 19.9168 19.7334 19.9877 19.8676 20.1928L20.0987 20.5479C21.3219 19.848 22.3635 18.9234 23.1522 17.8383L22.7521 17.6333C22.5205 17.5146 22.441 17.2516 22.5747 17.0461C22.7085 16.8406 23.004 16.7688 23.2365 16.8887L23.6381 17.0947C24.2907 15.9757 24.6812 14.7213 24.7524 13.3925H24.2926C24.0252 13.3925 23.8082 13.2004 23.8082 12.9627C23.8082 12.7249 24.0252 12.5328 24.2926 12.5328H24.7524C24.6812 11.2036 24.2907 9.94922 23.6381 8.83068L23.2365 9.03659C23.16 9.07571 23.0766 9.09419 22.9948 9.09419C22.8271 9.09419 22.6644 9.01682 22.5747 8.87925C22.442 8.6742 22.5215 8.41112 22.753 8.29247ZM19.9335 13.3934H16.4735C16.2569 14.1328 15.5046 14.683 14.6045 14.683C13.5357 14.683 12.6666 13.9118 12.6666 12.9635C12.6666 12.1644 13.2867 11.4972 14.12 11.3051V6.94523C14.12 6.70751 14.337 6.51535 14.6045 6.51535C14.8719 6.51535 15.0889 6.70751 15.0889 6.94523V11.3051C15.7667 11.4615 16.2972 11.9323 16.4735 12.5336H19.9335C20.2009 12.5336 20.4179 12.7258 20.4179 12.9635C20.4179 13.2013 20.2009 13.3934 19.9335 13.3934Z" fill="#425486"/>
<path d="M14.6042 13.823C15.1393 13.823 15.5731 13.4381 15.5731 12.9633C15.5731 12.4884 15.1393 12.1035 14.6042 12.1035C14.0691 12.1035 13.6353 12.4884 13.6353 12.9633C13.6353 13.4381 14.0691 13.823 14.6042 13.823Z" fill="#425486"/>
<path d="M24.8324 4.19862L26.8168 5.9594C26.9078 6.04022 27.0309 6.08536 27.1593 6.08536C27.2877 6.08536 27.4112 6.04022 27.5018 5.9594C29.0361 4.59841 29.0361 2.38324 27.5018 1.02225C26.7591 0.363247 25.7708 0 24.72 0C23.6693 0 22.6814 0.363247 21.9383 1.02225C21.8472 1.10307 21.7963 1.21183 21.7963 1.32617C21.7963 1.44052 21.8472 1.54971 21.9383 1.6301L24.1479 3.59077L23.3248 4.32114C21.0091 2.47954 17.9527 1.3567 14.6055 1.3567C11.2584 1.3567 8.2015 2.47954 5.8858 4.32114L5.0627 3.59077L7.27231 1.6301C7.36339 1.54928 7.41426 1.44052 7.41426 1.32617C7.41426 1.21183 7.36339 1.10264 7.27231 1.02225C6.52916 0.363247 5.54135 0 4.49056 0C3.43929 0 2.45148 0.363247 1.70832 1.02225C0.174048 2.38324 0.174048 4.59841 1.70832 5.9594C1.7994 6.04022 1.92245 6.08536 2.05084 6.08536C2.17922 6.08536 2.30275 6.04022 2.39335 5.9594L4.37768 4.19862L5.18963 4.9191C2.92286 7.00702 1.52471 9.84249 1.52471 12.9634C1.52471 17.2183 4.11995 20.9437 7.97817 22.9645L6.51123 24.2662C6.32181 24.4343 6.32181 24.706 6.51123 24.874C6.6057 24.9579 6.72972 25 6.85374 25C6.97776 25 7.10178 24.9579 7.19625 24.874L8.86763 23.391C10.601 24.145 12.5481 24.5701 14.6051 24.5701C16.6621 24.5701 18.6091 24.145 20.3425 23.391L22.0139 24.874C22.1083 24.9579 22.2323 25 22.3564 25C22.4804 25 22.6044 24.9579 22.6989 24.874C22.8883 24.706 22.8883 24.4343 22.6989 24.2662L21.2319 22.9645C25.0902 20.9437 27.6854 17.2183 27.6854 12.9634C27.6854 9.84249 26.2873 7.00702 24.0205 4.9191L24.8324 4.19862ZM24.2365 8.00175C24.2419 8.00863 24.2501 8.01293 24.255 8.02024C24.2598 8.02755 24.2598 8.03614 24.2637 8.04388C25.2055 9.49429 25.7476 11.1734 25.7476 12.9638C25.7476 14.7543 25.2055 16.4338 24.2637 17.8838C24.2593 17.8915 24.2598 17.8997 24.255 17.9074C24.2482 17.9182 24.238 17.9259 24.2303 17.9358C23.2565 19.4137 21.8642 20.6479 20.1971 21.5102C20.1894 21.515 20.1845 21.5223 20.1763 21.5266C20.1637 21.533 20.1502 21.5356 20.1376 21.5408C18.5059 22.3726 16.618 22.851 14.6051 22.851C12.5921 22.851 10.7042 22.3726 9.07256 21.5408C9.05996 21.5356 9.0464 21.533 9.0338 21.5266C9.02556 21.5223 9.0212 21.515 9.01297 21.5102C7.34595 20.6479 5.95362 19.4142 4.97986 17.9358C4.97211 17.9259 4.96194 17.9182 4.95516 17.9074C4.95031 17.9001 4.95031 17.8915 4.94643 17.8838C4.00465 16.4334 3.46254 14.7543 3.46254 12.9638C3.46254 11.1734 4.00465 9.49386 4.94643 8.04388C4.9508 8.03614 4.95031 8.02798 4.95516 8.02024C4.96 8.01293 4.96824 8.00906 4.97356 8.00175C5.94732 6.5191 7.34256 5.28148 9.01297 4.41743C9.02072 4.4127 9.02556 4.40539 9.0338 4.40109C9.04252 4.39679 9.05172 4.39679 9.06044 4.39293C10.6945 3.55724 12.5873 3.07621 14.6051 3.07621C16.6228 3.07621 18.5156 3.55681 20.1497 4.39293C20.1584 4.39679 20.1676 4.39679 20.1763 4.40109C20.1845 4.40539 20.1889 4.4127 20.1971 4.41743C21.868 5.28105 23.2628 6.5191 24.2365 8.00175Z" fill="#425486"/>
</g>
<defs>
<clipPath id="clip0">
<rect x="0.51709" width="28.1741" height="25" fill="white"/>
</clipPath>
</defs>
</svg>
