<svg viewBox="0 0 19 23" fill="none" xmlns="http://www.w3.org/2000/svg">
<path d="M13.8445 0C13.8973 0 13.9502 0 14.006 0C14.1357 1.606 13.5244 2.806 12.7814 3.675C12.0525 4.538 11.0542 5.375 9.43971 5.248C9.33201 3.665 9.94431 2.554 10.6862 1.687C11.3743 0.879 12.6358 0.16 13.8445 0Z" fill="white"/>
<path d="M18.7319 16.716C18.7319 16.732 18.7319 16.746 18.7319 16.761C18.2781 18.139 17.6309 19.32 16.8411 20.416C16.1201 21.411 15.2366 22.75 13.6589 22.75C12.2957 22.75 11.3902 21.871 9.99313 21.847C8.51523 21.823 7.70249 22.582 6.35125 22.773C6.19668 22.773 6.04211 22.773 5.89053 22.773C4.89828 22.629 4.09751 21.841 3.51413 21.131C1.79391 19.033 0.464598 16.323 0.217285 12.855C0.217285 12.515 0.217285 12.176 0.217285 11.836C0.321994 9.354 1.52465 7.336 3.12321 6.358C3.96687 5.838 5.12665 5.395 6.41806 5.593C6.97152 5.679 7.53695 5.869 8.03258 6.057C8.50227 6.238 9.08964 6.559 9.64609 6.542C10.023 6.531 10.398 6.334 10.7779 6.195C11.8909 5.792 12.9818 5.33 14.4198 5.547C16.148 5.809 17.3746 6.579 18.1325 7.767C16.6706 8.7 15.5148 10.106 15.7122 12.507C15.8878 14.688 17.1522 15.964 18.7319 16.716Z" fill="white"/>
</svg>
