<svg width="82" height="73" viewBox="0 0 82 73" fill="none" xmlns="http://www.w3.org/2000/svg">
<rect x="23" width="35" height="25" fill="#32BBFF"/>
<g clip-path="url(#clip0)">
<path d="M61.9504 2.35547H49.6597V24.3849L40.9996 18.8773L32.3396 24.3849V2.35547H20.0489C16.6391 2.36122 13.8803 4.82701 13.8867 7.86197V64.0372C13.8771 60.3934 17.1887 57.4338 21.2811 57.428H68.1126V7.86197C68.119 4.82701 65.3602 2.36122 61.9504 2.35547Z" fill="#546698"/>
<path d="M61.951 0H20.0495C15.1809 0.0109233 11.2409 3.52823 11.2422 7.86307V64.0365C11.2403 68.9773 15.7317 72.9879 21.2817 73H70.7583V7.86307C70.7596 3.52823 66.8196 0.0109233 61.951 0ZM65.468 68.2903H21.2817C18.643 68.2903 16.5035 66.3856 16.5035 64.0365C16.5035 61.6869 18.643 59.7822 21.2817 59.7822H65.468V68.2903ZM65.468 55.0725H21.2817C19.6278 55.084 18.001 55.4474 16.5364 56.1321V7.85789C16.5344 6.12683 18.1044 4.71945 20.0495 4.70968H61.951C63.8994 4.71773 65.4732 6.12798 65.468 7.86307V55.0725Z" fill="#425486"/>
<path d="M52.3058 28.9646L41.0005 21.7708L29.6953 28.9646V0H52.3109L52.3058 28.9646ZM41.0005 15.9826L47.0154 19.808V4.70968H34.9805V19.808L41.0005 15.9826Z" fill="#425486"/>
</g>
<defs>
<clipPath id="clip0">
<rect width="82" height="73" fill="white"/>
</clipPath>
</defs>
</svg>
