<svg width="24" height="22" viewBox="0 0 24 22" fill="none" xmlns="http://www.w3.org/2000/svg">
<g clip-path="url(#clip0)">
<path d="M21 2.69632H20.0001V0.898718C20.0001 0.402703 19.552 0 18.9999 0H18C17.4479 0 17.0001 0.402703 17.0001 0.898718V2.69632H6.99994V0.898718C6.99994 0.402703 6.55206 0 6 0H5.00006C4.448 0 3.99994 0.402703 3.99994 0.898718V2.69632H3C1.34601 2.69632 0 3.90608 0 5.39264V18.8742C0 20.3608 1.34601 21.5706 3 21.5706H21C22.654 21.5706 24 20.3608 24 18.8742V5.39264C24 3.90608 22.654 2.69632 21 2.69632ZM21.9999 18.8742C21.9999 19.3694 21.551 19.773 21 19.773H3C2.44904 19.773 2.00006 19.3694 2.00006 18.8742V9.02372H21.9999V18.8742Z" fill="#A1A9C3"/>
</g>
<defs>
<clipPath id="clip0">
<rect width="24" height="21.5706" fill="white"/>
</clipPath>
</defs>
</svg>
