<svg viewBox="0 0 20 12" fill="none" xmlns="http://www.w3.org/2000/svg">
<path d="M10.7804 11.0303L19.6805 3.03096C19.8865 2.84595 20 2.59897 20 2.33563C20 2.07228 19.8865 1.8253 19.6805 1.64029L19.0252 1.0512C18.5982 0.667869 17.9042 0.667869 17.4779 1.0512L10.0041 7.76841L2.52209 1.04374C2.31608 0.858729 2.04145 0.756577 1.7486 0.756577C1.45543 0.756577 1.1808 0.858729 0.974625 1.04374L0.319508 1.63284C0.113495 1.818 0 2.06483 0 2.32817C0 2.59152 0.113495 2.8385 0.319508 3.02351L9.22773 11.0303C9.43439 11.2157 9.71033 11.3176 10.0037 11.317C10.2981 11.3176 10.5739 11.2157 10.7804 11.0303Z" fill="#425486"/>
</svg>
