<svg width="7" height="7" viewBox="0 0 7 7" fill="none" xmlns="http://www.w3.org/2000/svg">
<path d="M6.0003 3.22686L1.99519 0.111828C1.90256 0.0397233 1.7789 0 1.64705 0C1.5152 0 1.39154 0.0397233 1.2989 0.111828L1.00396 0.341176C0.812031 0.490622 0.812031 0.733514 1.00396 0.882733L4.36715 3.49855L1.00022 6.11727C0.907591 6.18937 0.856445 6.28549 0.856445 6.38799C0.856445 6.4906 0.907591 6.58672 1.00022 6.65888L1.29517 6.88817C1.38788 6.96028 1.51146 7 1.64332 7C1.77517 7 1.89883 6.96028 1.99146 6.88817L6.0003 3.77029C6.09316 3.69796 6.14416 3.60139 6.14386 3.49872C6.14416 3.39566 6.09316 3.29914 6.0003 3.22686Z" fill="#425486"/>
</svg>
