<svg width="18" height="18" viewBox="0 0 18 18" fill="none" xmlns="http://www.w3.org/2000/svg">
<circle cx="9" cy="9" r="8.5" transform="rotate(-180 9 9)" stroke="#425486"/>
<path d="M5.12787 10.9679L5.38992 11.2317C5.47239 11.3141 5.58212 11.3595 5.69939 11.3595C5.81659 11.3595 5.92645 11.3141 6.00892 11.2317L8.99821 8.24231L11.991 11.2351C12.0733 11.3175 12.1831 11.3628 12.3004 11.3628C12.4176 11.3628 12.5275 11.3175 12.6099 11.2351L12.872 10.9728C13.0427 10.8023 13.0427 10.5245 12.872 10.3539L9.30878 6.77791C9.22644 6.69557 9.11672 6.63755 8.99847 6.63755H8.99711C8.87984 6.63755 8.77011 6.69563 8.68777 6.77791L5.12787 10.3442C5.0454 10.4266 5.00013 10.5396 5 10.6568C5 10.7741 5.0454 10.8856 5.12787 10.9679Z" fill="#425486"/>
</svg>
