<svg width="20" height="21" viewBox="0 0 20 21" fill="none" xmlns="http://www.w3.org/2000/svg">
<path d="M9.99958 0C4.47746 0 0 4.70133 0 10.4996C0 16.2978 4.47746 21 9.99958 21C15.5217 21 20 16.2978 20 10.4996C20 4.70133 15.5217 0 9.99958 0ZM12.0813 16.2729C11.5666 16.4862 11.1568 16.648 10.8495 16.76C10.5431 16.872 10.1867 16.928 9.78116 16.928C9.1581 16.928 8.67302 16.768 8.32762 16.4489C7.98222 16.1298 7.81037 15.7253 7.81037 15.2338C7.81037 15.0427 7.82307 14.8471 7.84847 14.648C7.87471 14.4489 7.91619 14.2249 7.97291 13.9733L8.61714 11.584C8.67386 11.3547 8.72296 11.1369 8.7619 10.9342C8.80085 10.7298 8.81947 10.5422 8.81947 10.3716C8.81947 10.0676 8.75937 9.85422 8.64 9.73422C8.51894 9.61422 8.29122 9.55556 7.95175 9.55556C7.78582 9.55556 7.61481 9.58133 7.43958 9.63556C7.26603 9.69156 7.11534 9.74222 6.99175 9.792L7.1619 9.056C7.58349 8.87556 7.9873 8.72089 8.37249 8.59289C8.75767 8.46311 9.12169 8.39911 9.46455 8.39911C10.0834 8.39911 10.5608 8.55733 10.8969 8.87022C11.2313 9.184 11.3998 9.592 11.3998 10.0933C11.3998 10.1973 11.3879 10.3804 11.3651 10.6418C11.3422 10.904 11.299 11.1431 11.2364 11.3627L10.5956 13.7449C10.5431 13.936 10.4965 14.1547 10.4542 14.3991C10.4127 14.6436 10.3924 14.8302 10.3924 14.9556C10.3924 15.272 10.4593 15.488 10.5947 15.6027C10.7285 15.7173 10.963 15.7751 11.2948 15.7751C11.4514 15.7751 11.6267 15.7458 11.8248 15.6889C12.0212 15.632 12.1634 15.5813 12.2531 15.5378L12.0813 16.2729ZM11.9678 6.60356C11.669 6.89511 11.3092 7.04089 10.8885 7.04089C10.4686 7.04089 10.1062 6.89511 9.80487 6.60356C9.50519 6.312 9.35365 5.95733 9.35365 5.54311C9.35365 5.12978 9.50603 4.77422 9.80487 4.48C10.1062 4.18489 10.4686 4.03822 10.8885 4.03822C11.3092 4.03822 11.6698 4.18489 11.9678 4.48C12.2667 4.77422 12.4165 5.12978 12.4165 5.54311C12.4165 5.95822 12.2667 6.312 11.9678 6.60356Z" fill="#425486"/>
</svg>
