<svg width="21" height="27" viewBox="0 0 21 27" fill="none" xmlns="http://www.w3.org/2000/svg">
<path d="M10.4999 0C5.16983 0 0.833252 3.8976 0.833252 8.68816C0.833252 10.1263 1.2333 11.5522 1.99382 12.8169L9.97131 25.7844C10.0775 25.9573 10.2799 26.0644 10.4999 26.0644C10.72 26.0644 10.9224 25.9573 11.0286 25.7844L19.009 12.8126C19.7666 11.5522 20.1666 10.1262 20.1666 8.6881C20.1666 3.8976 15.83 0 10.4999 0ZM10.4999 13.0322C7.83488 13.0322 5.66662 11.0834 5.66662 8.68816C5.66662 6.29288 7.83488 4.3441 10.4999 4.3441C13.165 4.3441 15.3333 6.29288 15.3333 8.68816C15.3333 11.0834 13.165 13.0322 10.4999 13.0322Z" fill="#A1A9C3"/>
</svg>
