<svg viewBox="0 0 22 21" fill="none" xmlns="http://www.w3.org/2000/svg">
<g clip-path="url(#clip0)">
<path d="M16.5981 13.7967C14.1653 15.1612 10.2607 17.3522 4.20421 20.7528C3.79588 21.0232 3.32608 21.0586 2.92017 20.9208L13.3113 10.5008L16.5981 13.7967Z" fill="#32BBFF"/>
<path d="M2.92017 20.9209C2.8441 20.895 2.77006 20.8639 2.69926 20.8262C2.25102 20.5831 1.92163 20.1152 1.92163 19.5235V1.47819C1.92163 0.886459 2.25097 0.418592 2.69926 0.175491C2.76994 0.13788 2.84393 0.106586 2.91993 0.0805817L13.3113 10.5008L2.92017 20.9209Z" fill="#32BBFF"/>
<path d="M13.3113 10.5008L2.91992 0.0805464C3.32596 -0.0582504 3.79576 -0.0255203 4.20421 0.248834C10.0777 3.54691 13.9383 5.71196 16.3992 7.08804C16.4678 7.12664 16.5349 7.16437 16.6012 7.20174L13.3113 10.5008Z" fill="#32BBFF"/>
<path d="M1.92163 10.5008V1.47816C1.92163 0.886426 2.25097 0.418559 2.69926 0.175459C2.76994 0.137847 2.84393 0.106553 2.91993 0.0805483L13.3113 10.5008H1.92163Z" fill="#2C9FD9"/>
<path d="M4.20429 20.7528C3.7194 21.0738 3.14759 21.0647 2.69934 20.8261L13.1537 10.3427L16.5982 13.7967C14.1654 15.1612 10.2607 17.3522 4.20429 20.7528Z" fill="#29CC5E"/>
<path d="M13.1538 10.6589L2.69934 0.175464C3.14763 -0.0630426 3.7194 -0.0768232 4.20429 0.248841C10.0778 3.54691 13.9384 5.71197 16.3993 7.08805C16.4678 7.12664 16.535 7.16438 16.6013 7.20174L13.1538 10.6589Z" fill="#D93F21"/>
<path d="M20.9371 10.5008C20.9371 11.0008 20.6855 11.5054 20.1869 11.7852C20.1869 11.7852 19.2544 12.3069 16.396 13.9102L12.9961 10.5008L16.3993 7.0881C19.2263 8.67979 20.1868 9.21648 20.1868 9.21648C20.6855 9.49625 20.9371 10.0008 20.9371 10.5008Z" fill="#FFD500"/>
<path d="M20.1869 9.21643C20.6855 9.49624 20.9371 10.0008 20.9371 10.5008H12.9961L16.3993 7.08808C19.2263 8.67974 20.1869 9.21643 20.1869 9.21643Z" fill="#FFAA00"/>
</g>
<defs>
<clipPath id="clip0">
<rect width="20.9418" height="21" transform="matrix(1 0 0 -1 0.958496 21)" fill="white"/>
</clipPath>
</defs>
</svg>
