<svg viewBox="0 0 82 82" fill="none" xmlns="http://www.w3.org/2000/svg">
<g clip-path="url(#clip0)">
<path d="M55.1693 32.9405C20.7822 21.1892 43.9688 7.11148 55.6389 1.55966C55.7983 1.48391 55.744 1.24512 55.5675 1.24512H47.2424C45.9258 1.24512 44.6248 1.54989 43.4207 2.13831C30.2003 8.60029 3.54392 24.3224 25.079 37.5079C49.7746 52.6285 23.2989 72.3734 9.44312 80.8428H63.7744C71.0403 70.472 86.0949 43.5091 55.1693 32.9405Z" fill="#F1F2F6"/>
<path d="M9.44336 80.8428H21.3793C35.6148 71.0302 57.4025 51.605 34.2625 36.5062C14.9478 23.9035 34.3983 9.12689 48.153 1.24512H47.2423C45.9257 1.24512 44.6247 1.54989 43.4207 2.13831C30.2004 8.60029 3.54401 24.3224 25.0791 37.5079C49.7749 52.6285 23.2991 72.3734 9.44336 80.8428Z" fill="#A1A9C3"/>
<path d="M57.9206 30.0585C25.1504 19.9307 44.0581 8.3977 56.1911 2.45702C56.7579 2.17947 56.5774 1.24512 55.9573 1.24512H55.5064C44.0931 6.56231 19.3121 20.9604 54.3687 32.9405C85.2942 43.5089 70.2397 70.4719 62.9739 80.8426H69.1317C70.6732 80.8426 72.0895 79.9078 72.8179 78.4082C79.7986 64.0349 86.3136 38.8336 57.9206 30.0585Z" fill="#FA6B6B"/>
<path d="M25.3994 37.5083C9.47782 27.7599 19.5784 16.6249 31.4357 8.87061C18.1706 16.3094 2.95738 28.5356 20.7903 39.4542C41.6771 52.2428 19.7672 68.3389 3.80477 78.1238C2.61881 78.8507 3.08839 80.8432 4.44491 80.8432H9.76354C23.6195 72.3738 50.0952 52.629 25.3994 37.5083Z" fill="#FA6B6B"/>
<path d="M36.8996 9.9867C36.5709 9.40982 35.8368 9.2085 35.2601 9.5373C35.2461 9.54515 34.9117 9.73621 34.3802 10.0849C33.8251 10.4489 33.67 11.1941 34.0342 11.7492C34.3984 12.3046 35.1436 12.4594 35.6986 12.0952C36.1566 11.7949 36.4428 11.6304 36.4508 11.6259C37.0269 11.2969 37.2281 10.5633 36.8996 9.9867Z" fill="#425486"/>
<path d="M46.873 66.4607C46.4686 66.9354 46.0418 67.4153 45.6044 67.8868C45.1527 68.3735 45.1813 69.1341 45.668 69.5856C46.1534 70.0361 46.9143 70.0098 47.3668 69.522C47.8272 69.0256 48.2769 68.5202 48.7031 68.0197C49.1336 67.5143 49.0729 66.7556 48.5674 66.3251C48.0623 65.8946 47.3036 65.9553 46.873 66.4607Z" fill="#425486"/>
<path d="M53.0133 59.117C52.4143 58.8305 51.6968 59.0837 51.4102 59.6825C51.1502 60.2259 50.8571 60.782 50.5391 61.3352C50.2082 61.9108 50.4065 62.6456 50.9821 62.9765C51.5565 63.3069 52.2917 63.1102 52.6233 62.5335C52.9715 61.9281 53.2928 61.318 53.579 60.7202C53.8653 60.1214 53.6123 59.4035 53.0133 59.117Z" fill="#425486"/>
<path d="M55.4827 54.0576C55.5133 53.6707 55.529 53.2812 55.529 52.9002C55.529 52.5739 55.5176 52.2451 55.495 51.9227C55.4486 51.2605 54.8725 50.7608 54.2118 50.8077C53.5496 50.8542 53.0502 51.4287 53.0968 52.0909C53.1154 52.3574 53.125 52.6295 53.1249 52.9C53.1249 53.2181 53.1119 53.5437 53.0861 53.8677C53.0336 54.5294 53.5275 55.1086 54.1894 55.1611C54.8494 55.2136 55.4302 54.7207 55.4827 54.0576Z" fill="#425486"/>
<path d="M51.9158 43.5699C51.4834 43.0659 50.7246 43.0079 50.2207 43.4402C49.7169 43.8724 49.6587 44.6314 50.091 45.1352C50.493 45.604 50.86 46.0882 51.1816 46.5746C51.5479 47.1284 52.2938 47.2804 52.8474 46.9141C53.4013 46.5478 53.5532 45.8021 53.187 45.2483C52.8104 44.679 52.3827 44.1142 51.9158 43.5699Z" fill="#425486"/>
<path d="M46.6939 39.1393C46.1429 38.7839 45.5589 38.4316 44.958 38.0919C44.3802 37.7652 43.6467 37.9687 43.3199 38.5468C42.9932 39.1248 43.1968 39.8581 43.7748 40.1848C44.3352 40.5016 44.8791 40.8298 45.3909 41.1599C45.9452 41.5173 46.6906 41.3626 47.0525 40.8011C47.4126 40.2431 47.2519 39.4992 46.6939 39.1393Z" fill="#425486"/>
<path d="M37.3714 34.2819C36.7911 33.9588 36.0594 34.1677 35.7365 34.7481C35.4138 35.3282 35.6225 36.0602 36.2027 36.3829C36.7681 36.6973 37.3635 37.0135 37.9728 37.3221C38.561 37.6205 39.2865 37.3892 39.5884 36.7934C39.8886 36.2013 39.6519 35.4779 39.0596 35.1778C38.4779 34.8828 37.9098 34.5813 37.3714 34.2819Z" fill="#425486"/>
<path d="M30.6131 32.5949C31.1171 33.0246 31.8761 32.9661 32.3077 32.4597C32.7383 31.9544 32.6778 31.1958 32.1725 30.7651C31.6863 30.3506 31.2333 29.9275 30.8267 29.5077C30.3648 29.0311 29.6039 29.0188 29.127 29.4807C28.65 29.9425 28.638 30.7036 29.0999 31.1804C29.5596 31.6551 30.0689 32.1311 30.6131 32.5949Z" fill="#425486"/>
<path d="M26.5953 21.6268C25.9335 21.6113 25.3789 22.1319 25.3608 22.7955C25.3584 22.8813 25.3573 22.9672 25.3574 23.0522C25.3574 23.71 25.4268 24.3724 25.5637 25.021C25.7011 25.6728 26.341 26.0859 26.988 25.9491C27.6376 25.812 28.0532 25.1744 27.9161 24.5248C27.8136 24.0389 27.7617 23.5436 27.7617 23.0511C27.7617 22.9877 27.7625 22.9244 27.7643 22.8614C27.7822 22.1978 27.2588 21.6451 26.5953 21.6268Z" fill="#425486"/>
<path d="M28.1291 17.7882C28.6667 18.1775 29.4183 18.0572 29.8077 17.5194C30.1498 17.0471 30.5378 16.5697 30.961 16.1009C31.4057 15.6079 31.367 14.848 30.8742 14.4031C30.381 13.958 29.6209 13.9973 29.1763 14.4899C28.6956 15.0226 28.2527 15.5674 27.8603 16.1094C27.471 16.6472 27.5913 17.3987 28.1291 17.7882Z" fill="#425486"/>
<path d="M40.9623 72.2836C40.5184 72.6506 40.2541 72.8518 40.2519 72.8536C39.723 73.2549 39.6196 74.0089 40.0209 74.5378C40.4236 75.0684 41.1776 75.1689 41.7053 74.7687C41.7175 74.7594 42.0075 74.539 42.4946 74.1361C43.0061 73.713 43.0778 72.9553 42.6547 72.4437C42.2319 71.9323 41.474 71.8604 40.9623 72.2836Z" fill="#425486"/>
<path d="M45.7335 82H69.1328C71.1408 82 72.9672 80.808 73.8994 78.8891C84.786 56.474 82.2856 36.2871 58.2764 28.8669C50.5473 26.4782 41.2517 22.5751 40.8598 17.5461C40.5465 13.5266 45.8827 8.79802 56.7204 3.49189C58.4287 2.65539 57.8442 0 55.9583 0C53.4106 0 49.9081 0 47.2436 0C45.7359 0 44.2725 0.341613 42.8945 1.01507C39.5393 2.65507 35.1111 4.99527 30.8303 7.7892C18.1116 14.9248 11.5995 21.8368 11.4751 28.3332C11.3899 32.7805 14.3134 36.8518 20.1642 40.4342C25.4646 43.6794 28.1526 47.3194 28.1536 51.253C28.1565 61.7438 9.35622 73.2681 3.17819 77.0552C0.951537 78.4202 1.88861 82 4.44599 82H40.128C40.7915 82 41.3292 81.4622 41.3292 80.7988C41.3292 80.1355 40.7915 79.5977 40.128 79.5977H13.5823C34.039 66.1495 46.5861 49.224 25.7074 36.4394C12.6915 28.4699 18.1059 19.3922 30.7438 10.7351C35.3332 7.59685 40.2909 4.96164 43.9495 3.17334C44.9963 2.6618 46.1045 2.40234 47.2436 2.40234H50.4318C44.0678 5.83609 34.7343 11.9489 35.1198 19.1693C35.2676 21.9387 36.8365 24.5601 39.7827 26.9609C42.8961 29.4981 47.6734 31.8775 53.9812 34.0332C64.941 37.7785 70.9301 43.9855 71.7822 52.4818C71.8485 53.1418 72.4365 53.6234 73.0973 53.557C73.7575 53.4909 74.2389 52.9022 74.1727 52.242C73.2184 42.7273 66.6862 35.8361 54.7581 31.7598C43.7229 27.9886 37.7614 23.5905 37.5184 19.041C37.4282 17.3534 38.095 15.7666 39.0316 14.3617C35.4438 23.0931 48.5237 28.367 57.5668 31.1618C66.6958 33.9832 72.7835 38.7751 75.6608 45.4046C80.5181 56.597 75.2882 70.5301 71.7384 77.8393C71.2116 78.9237 70.2132 79.5975 69.1326 79.5975H65.2431C69.3975 73.2894 73.1549 65.5856 74.0755 58.1143C74.1567 57.4559 73.6887 56.8564 73.0303 56.7752C72.3727 56.6955 71.7725 57.162 71.6914 57.8204C71.2275 61.5842 69.39 69.372 62.3441 79.5975H45.7335C45.0699 79.5975 44.5323 80.1353 44.5323 80.7987C44.5323 81.462 45.0701 82 45.7335 82ZM9.10509 79.5977H4.44615C4.43237 79.5977 4.42597 79.5962 4.42597 79.5962H4.42549C4.39954 79.5818 4.33308 79.4851 4.32939 79.3409C4.32523 79.17 4.40675 79.1199 4.43366 79.1034C15.6488 72.2285 30.5587 61.8618 30.5558 51.2526C30.5545 46.4263 27.4803 42.0971 21.4184 38.3854C13.7024 33.6612 11.3285 28.1814 17.0533 21.2249C13.6494 28.2615 17.299 33.9321 23.9144 38.1519C24.3928 38.457 24.5406 38.537 25.0386 38.8544C44.5925 51.3179 28.8032 67.4862 9.10509 79.5977Z" fill="#425486"/>
</g>
<defs>
<clipPath id="clip0">
<rect width="82" height="82" fill="white"/>
</clipPath>
</defs>
</svg>
