<svg width="32" height="32" viewBox="0 0 32 32" fill="none" xmlns="http://www.w3.org/2000/svg">
<g clip-path="url(#clip0)">
<path d="M29.5489 15.6065L29.5493 18.5127L26.2754 18.5145C17.406 18.5193 8.63212 15.671 1.45445 10.4756L1.4541 7.87155L0.485352 7.87207L0.486378 15.6221L1.45513 15.6216L1.45475 12.7579C8.50549 17.797 16.809 20.4571 25.4846 20.4524L29.5495 20.4502L29.5499 23.3565L30.5186 23.356L30.5176 15.606L29.5489 15.6065Z" fill="#425486"/>
<path d="M15.5023 15.4211L15.0552 15.9804C15.435 16.0877 15.8153 16.1936 16.1979 16.2902L15.5023 15.4211Z" fill="#425486"/>
<path d="M18.1505 12.2221L17.8265 12.2222L16.1087 14.6285L17.207 16.0002L18.1505 12.2221Z" fill="#425486"/>
<path d="M8.7199 10.2897L11.6354 10.2882C11.0245 9.47764 10.6572 8.47373 10.657 7.38243C10.6567 4.71159 12.8293 2.53751 15.5001 2.53608C18.171 2.53465 20.3442 4.70639 20.3445 7.37724C20.3447 8.46853 19.9776 9.47284 19.367 10.284L22.2824 10.2824C23.6178 10.2817 24.7041 9.1947 24.704 7.85928L24.7034 3.98428C24.7033 2.64885 23.6167 1.56298 22.2812 1.5637L8.71875 1.57097C7.38333 1.57168 6.29702 2.65872 6.2972 3.99414L6.29771 7.86914C6.29789 9.20456 7.38448 10.2904 8.7199 10.2897ZM7.26575 2.5405L8.2345 2.53998L8.23463 3.50873L7.26588 3.50925L7.26575 2.5405ZM7.26601 4.478L8.23476 4.47748L8.23489 5.44623L7.26614 5.44675L7.26601 4.478ZM7.26627 6.4155L8.23502 6.41498L8.23515 7.38373L7.2664 7.38425L7.26627 6.4155Z" fill="#425486"/>
<path d="M12.5952 11.2562L8.72023 11.2583C7.72678 11.2588 6.76582 11.6076 5.99769 12.2222C6.56784 12.5421 7.14525 12.8479 7.72945 13.1402C9.06713 11.9285 10.7774 11.2572 12.5952 11.2562Z" fill="#425486"/>
<path d="M15.5015 11.2548C17.6416 11.2536 19.3763 9.51779 19.376 7.37768C19.3757 5.23758 17.6406 3.50361 15.5005 3.50476C13.3604 3.50591 11.6257 5.24173 11.626 7.38184C11.6263 9.52194 13.3614 11.2559 15.5015 11.2548Z" fill="#425486"/>
<path d="M24.6228 17.5127C24.1768 14.7443 21.9126 12.5934 19.1375 12.2689L18.0284 16.7074C19.2743 16.9625 20.5332 17.1546 21.7989 17.2934L21.7987 16.0955L22.7675 16.095L22.7676 17.3936C23.3847 17.4466 24.0033 17.4879 24.6228 17.5127Z" fill="#425486"/>
<path d="M8.67303 13.6021C9.95331 14.203 11.2646 14.7356 12.5991 15.2033L11.8659 12.2717C10.6927 12.407 9.5947 12.8644 8.67303 13.6021Z" fill="#425486"/>
<path d="M16.636 12.2229L14.3672 12.2241L15.5018 13.8118L16.636 12.2229Z" fill="#425486"/>
<path d="M14.0533 15.6819L14.8945 14.6294L13.1766 12.2249L12.8525 12.2251L13.6885 15.5668C13.8101 15.606 13.9317 15.6442 14.0533 15.6819Z" fill="#425486"/>
<path d="M18.4077 11.2534C22.0444 11.2515 25.1152 13.9759 25.6005 17.5324C25.8253 17.5361 26.05 17.5462 26.2753 17.5461L26.6429 17.5459L26.6427 15.6084C26.6423 13.2049 24.6862 11.2501 22.2827 11.2513L18.4077 11.2534Z" fill="#425486"/>
<path d="M22.2843 25.4775C23.1427 26.719 23.6321 28.1462 23.7186 29.6564L24.6946 29.6559C24.6067 27.947 24.0509 26.33 23.08 24.9254L22.2843 25.4775Z" fill="#425486"/>
<path d="M19.5492 27.3727C19.2193 27.601 18.8338 27.7219 18.4332 27.7221C17.3521 27.7227 16.4724 26.844 16.4722 25.7624L16.4722 25.6272C16.4721 24.953 16.8116 24.3347 17.3802 23.9726L18.2457 23.4214C16.5086 22.7258 14.498 22.7288 12.7626 23.4258L13.6263 23.9746C14.195 24.3361 14.5346 24.954 14.5347 25.6283L14.5347 25.7634C14.5349 26.845 13.6553 27.7246 12.5742 27.7252C12.1736 27.7254 11.7881 27.605 11.4582 27.3771L9.51856 26.0354C8.77325 27.116 8.34281 28.3543 8.25773 29.665L22.7493 29.6573C22.6638 28.3466 22.2331 27.1088 21.4875 26.029L19.5492 27.3727Z" fill="#425486"/>
<path d="M7.92644 24.9342C6.95594 26.3399 6.40057 27.9575 6.31313 29.666L7.28914 29.6654C7.37516 28.1551 7.86467 26.7274 8.72234 25.485L7.92644 24.9342Z" fill="#425486"/>
<path d="M24.2144 24.14L23.8749 24.3751C24.5285 25.3203 25.0105 26.3522 25.3091 27.4419C26.1126 27.0079 26.6443 26.1232 26.6442 25.1297L26.6437 21.4209L25.6706 21.4214C25.6484 22.5074 25.1099 23.52 24.2144 24.14Z" fill="#425486"/>
<path d="M17.441 25.627L17.441 25.7621C17.4411 26.309 17.8858 26.7539 18.4331 26.7536C18.6356 26.7535 18.8308 26.6923 18.9979 26.5769L23.663 23.3442C24.3013 22.9021 24.6853 22.1811 24.7027 21.4071C24.0308 21.3953 23.3614 21.3685 22.6949 21.3258C22.5942 21.648 22.3894 21.9305 22.0954 22.1181L17.9001 24.7902C17.6124 24.973 17.441 25.286 17.441 25.627Z" fill="#425486"/>
<path d="M6.50178 16.9359C6.36768 17.4523 6.29897 17.9847 6.29904 18.5253L6.29941 21.3618C6.29952 22.1566 6.68954 22.9004 7.34302 23.352L12.0094 26.5798C12.1761 26.6955 12.3713 26.7564 12.5738 26.7563C13.1211 26.756 13.5657 26.3106 13.5656 25.7637L13.5656 25.6286C13.5656 25.2876 13.394 24.9748 13.1063 24.7919L8.9103 22.1242C8.48885 21.8561 8.23692 21.398 8.23685 20.8986L8.23644 17.757C7.65321 17.4957 7.07387 17.2243 6.50178 16.9359Z" fill="#425486"/>
<path d="M9.20593 20.8985C9.20595 21.0651 9.28977 21.2176 9.43025 21.3072L11.7845 22.8036C14.0784 21.6452 16.9265 21.6446 19.2216 22.8001L21.5759 21.3007C21.6006 21.2847 21.6215 21.2648 21.6428 21.2449C17.3376 20.8602 13.1559 19.8303 9.20605 18.1802L9.20641 20.8985L9.20593 20.8985Z" fill="#425486"/>
<path d="M6.79206 24.1489C5.87699 23.5168 5.33097 22.4747 5.33082 21.3621L5.33044 18.5256C5.33035 17.8267 5.4344 17.1407 5.62903 16.4775C5.20323 16.2506 4.78034 16.0164 4.36133 15.7739L4.36257 25.1412C4.3627 26.1347 4.89466 27.0189 5.69781 27.452C5.99604 26.362 6.47786 25.3295 7.13116 24.3837L6.79206 24.1489Z" fill="#425486"/>
</g>
<defs>
<clipPath id="clip0">
<rect width="31" height="31" transform="matrix(1 -0.000535921 0.000132493 1 0 0.122559)" fill="white"/>
</clipPath>
</defs>
</svg>
